<svg data-v-423bf9ae="" xmlns="http://www.w3.org/2000/svg" viewBox="0 0 2553.5381978221067 193" class="fontAboveSlogan"><!----><!----><!----><g data-v-423bf9ae="" id="af8429f5-5577-4bf7-ad7c-bab6457a7d6d" fill="black" transform="matrix(8.571428298950195,0,0,8.571428298950195,743.7714233398438,-19.868574142456055)"><path d="M6.51 9.65L2.83 9.65L2.30 11.12L2.30 11.12Q2.24 11.29 2.20 11.45L2.20 11.45L2.20 11.45Q2.17 11.61 2.17 11.72L2.17 11.72L2.17 11.72Q2.17 12.08 2.40 12.24L2.40 12.24L2.40 12.24Q2.63 12.41 3.10 12.41L3.10 12.41L3.42 12.41L3.42 13.00L0 13.00L0 12.41L0.27 12.41L0.27 12.41Q0.47 12.41 0.62 12.36L0.62 12.36L0.62 12.36Q0.76 12.32 0.88 12.20L0.88 12.20L0.88 12.20Q0.99 12.07 1.10 11.86L1.10 11.86L1.10 11.86Q1.20 11.65 1.33 11.31L1.33 11.31L4.44 3.00L5.53 3.00L8.70 11.66L8.70 11.66Q8.78 11.88 8.86 12.02L8.86 12.02L8.86 12.02Q8.95 12.17 9.06 12.25L9.06 12.25L9.06 12.25Q9.18 12.34 9.33 12.37L9.33 12.37L9.33 12.37Q9.48 12.41 9.69 12.41L9.69 12.41L9.87 12.41L9.87 13.00L6.02 13.00L6.02 12.41L6.34 12.41L6.34 12.41Q7.18 12.41 7.18 11.74L7.18 11.74L7.18 11.74Q7.18 11.62 7.15 11.50L7.15 11.50L7.15 11.50Q7.12 11.38 7.07 11.22L7.07 11.22L6.51 9.65ZM6.25 8.95L5.39 6.50L5.39 6.50Q5.17 5.88 4.99 5.34L4.99 5.34L4.99 5.34Q4.81 4.79 4.69 4.29L4.69 4.29L4.69 4.29Q4.64 4.54 4.58 4.77L4.58 4.77L4.58 4.77Q4.51 5.01 4.44 5.26L4.44 5.26L4.44 5.26Q4.36 5.50 4.27 5.77L4.27 5.77L4.27 5.77Q4.17 6.04 4.05 6.37L4.05 6.37L3.10 8.95L6.25 8.95ZM13.99 12.41L14.03 12.41L14.03 13.00L10.26 13.00L10.26 12.41L10.38 12.41L10.38 12.41Q10.62 12.41 10.82 12.37L10.82 12.37L10.82 12.37Q11.03 12.34 11.19 12.23L11.19 12.23L11.19 12.23Q11.34 12.13 11.43 11.93L11.43 11.93L11.43 11.93Q11.53 11.73 11.53 11.40L11.53 11.40L11.53 7.03L11.53 7.03Q11.53 6.73 11.43 6.54L11.43 6.54L11.43 6.54Q11.34 6.35 11.18 6.25L11.18 6.25L11.18 6.25Q11.03 6.15 10.82 6.11L10.82 6.11L10.82 6.11Q10.61 6.08 10.38 6.08L10.38 6.08L10.34 6.08L10.34 5.49L12.60 5.49L12.78 6.62L12.85 6.62L12.85 6.62Q13.07 6.23 13.31 5.98L13.31 5.98L13.31 5.98Q13.56 5.74 13.83 5.60L13.83 5.60L13.83 5.60Q14.10 5.46 14.40 5.40L14.40 5.40L14.40 5.40Q14.70 5.35 15.04 5.35L15.04 5.35L15.04 5.35Q15.59 5.35 16.03 5.51L16.03 5.51L16.03 5.51Q16.46 5.67 16.77 6.01L16.77 6.01L16.77 6.01Q17.07 6.34 17.23 6.86L17.23 6.86L17.23 6.86Q17.39 7.38 17.39 8.09L17.39 8.09L17.39 11.40L17.39 11.40Q17.39 11.73 17.47 11.93L17.47 11.93L17.47 11.93Q17.55 12.13 17.69 12.23L17.69 12.23L17.69 12.23Q17.83 12.34 18.03 12.37L18.03 12.37L18.03 12.37Q18.23 12.41 18.46 12.41L18.46 12.41L18.51 12.41L18.51 13.00L16.07 13.00L16.07 8.16L16.07 8.16Q16.07 7.70 15.99 7.35L15.99 7.35L15.99 7.35Q15.91 6.99 15.73 6.75L15.73 6.75L15.73 6.75Q15.54 6.50 15.25 6.37L15.25 6.37L15.25 6.37Q14.96 6.25 14.53 6.25L14.53 6.25L14.53 6.25Q14.05 6.25 13.73 6.43L13.73 6.43L13.73 6.43Q13.41 6.62 13.21 6.93L13.21 6.93L13.21 6.93Q13.01 7.25 12.92 7.66L12.92 7.66L12.92 7.66Q12.84 8.07 12.84 8.52L12.84 8.52L12.84 11.47L12.84 11.47Q12.84 11.78 12.93 11.97L12.93 11.97L12.93 11.97Q13.02 12.15 13.18 12.25L13.18 12.25L13.18 12.25Q13.34 12.35 13.55 12.38L13.55 12.38L13.55 12.38Q13.75 12.41 13.99 12.41L13.99 12.41ZM27.60 13.13L27.60 13.13L27.60 13.13Q26.78 13.13 26.12 12.96L26.12 12.96L26.12 12.96Q25.46 12.78 25.01 12.40L25.01 12.40L25.01 12.40Q24.55 12.02 24.32 11.43L24.32 11.43L24.32 11.43Q24.08 10.83 24.08 9.97L24.08 9.97L24.08 4.54L24.08 4.54Q24.08 4.23 23.98 4.04L23.98 4.04L23.98 4.04Q23.89 3.86 23.73 3.75L23.73 3.75L23.73 3.75Q23.58 3.65 23.37 3.62L23.37 3.62L23.37 3.62Q23.16 3.59 22.93 3.59L22.93 3.59L22.75 3.59L22.75 3.00L26.82 3.00L26.82 3.59L26.64 3.59L26.64 3.59Q26.41 3.59 26.20 3.62L26.20 3.62L26.20 3.62Q25.98 3.66 25.83 3.76L25.83 3.76L25.83 3.76Q25.68 3.87 25.58 4.07L25.58 4.07L25.58 4.07Q25.49 4.27 25.49 4.59L25.49 4.59L25.49 10.06L25.49 10.06Q25.49 10.66 25.67 11.09L25.67 11.09L25.67 11.09Q25.84 11.52 26.15 11.79L26.15 11.79L26.15 11.79Q26.46 12.05 26.89 12.17L26.89 12.17L26.89 12.17Q27.32 12.30 27.83 12.30L27.83 12.30L27.83 12.30Q28.44 12.30 28.88 12.13L28.88 12.13L28.88 12.13Q29.32 11.97 29.61 11.68L29.61 11.68L29.61 11.68Q29.90 11.39 30.04 10.99L30.04 10.99L30.04 10.99Q30.18 10.59 30.18 10.11L30.18 10.11L30.18 4.54L30.18 4.54Q30.18 4.23 30.09 4.04L30.09 4.04L30.09 4.04Q30.00 3.86 29.84 3.75L29.84 3.75L29.84 3.75Q29.68 3.65 29.47 3.62L29.47 3.62L29.47 3.62Q29.26 3.59 29.03 3.59L29.03 3.59L28.85 3.59L28.85 3.00L32.37 3.00L32.37 3.59L32.18 3.59L32.18 3.59Q31.95 3.59 31.74 3.62L31.74 3.62L31.74 3.62Q31.53 3.66 31.37 3.76L31.37 3.76L31.37 3.76Q31.22 3.87 31.13 4.07L31.13 4.07L31.13 4.07Q31.04 4.27 31.04 4.59L31.04 4.59L31.04 10.14L31.04 10.14Q31.04 10.83 30.81 11.39L30.81 11.39L30.81 11.39Q30.59 11.95 30.16 12.34L30.16 12.34L30.16 12.34Q29.72 12.72 29.08 12.93L29.08 12.93L29.08 12.93Q28.44 13.13 27.60 13.13ZM36.69 12.41L36.73 12.41L36.73 13.00L32.96 13.00L32.96 12.41L33.08 12.41L33.08 12.41Q33.32 12.41 33.53 12.37L33.53 12.37L33.53 12.37Q33.74 12.34 33.89 12.23L33.89 12.23L33.89 12.23Q34.04 12.13 34.14 11.93L34.14 11.93L34.14 11.93Q34.23 11.73 34.23 11.40L34.23 11.40L34.23 7.03L34.23 7.03Q34.23 6.73 34.14 6.54L34.14 6.54L34.14 6.54Q34.04 6.35 33.89 6.25L33.89 6.25L33.89 6.25Q33.73 6.15 33.52 6.11L33.52 6.11L33.52 6.11Q33.31 6.08 33.08 6.08L33.08 6.08L33.04 6.08L33.04 5.49L35.30 5.49L35.49 6.62L35.55 6.62L35.55 6.62Q35.77 6.23 36.02 5.98L36.02 5.98L36.02 5.98Q36.26 5.74 36.53 5.60L36.53 5.60L36.53 5.60Q36.80 5.46 37.10 5.40L37.10 5.40L37.10 5.40Q37.41 5.35 37.74 5.35L37.74 5.35L37.74 5.35Q38.29 5.35 38.73 5.51L38.73 5.51L38.73 5.51Q39.16 5.67 39.47 6.01L39.47 6.01L39.47 6.01Q39.77 6.34 39.93 6.86L39.93 6.86L39.93 6.86Q40.09 7.38 40.09 8.09L40.09 8.09L40.09 11.40L40.09 11.40Q40.09 11.73 40.17 11.93L40.17 11.93L40.17 11.93Q40.25 12.13 40.39 12.23L40.39 12.23L40.39 12.23Q40.54 12.34 40.74 12.37L40.74 12.37L40.74 12.37Q40.93 12.41 41.17 12.41L41.17 12.41L41.21 12.41L41.21 13.00L38.77 13.00L38.77 8.16L38.77 8.16Q38.77 7.70 38.69 7.35L38.69 7.35L38.69 7.35Q38.61 6.99 38.43 6.75L38.43 6.75L38.43 6.75Q38.25 6.50 37.95 6.37L37.95 6.37L37.95 6.37Q37.66 6.25 37.24 6.25L37.24 6.25L37.24 6.25Q36.76 6.25 36.43 6.43L36.43 6.43L36.43 6.43Q36.11 6.62 35.91 6.93L35.91 6.93L35.91 6.93Q35.71 7.25 35.63 7.66L35.63 7.66L35.63 7.66Q35.54 8.07 35.54 8.52L35.54 8.52L35.54 11.47L35.54 11.47Q35.54 11.78 35.63 11.97L35.63 11.97L35.63 11.97Q35.72 12.15 35.88 12.25L35.88 12.25L35.88 12.25Q36.04 12.35 36.25 12.38L36.25 12.38L36.25 12.38Q36.46 12.41 36.69 12.41L36.69 12.41ZM46.33 6.25L46.33 6.25L46.33 6.25Q45.79 6.25 45.42 6.43L45.42 6.43L45.42 6.43Q45.06 6.61 44.84 6.98L44.84 6.98L44.84 6.98Q44.62 7.35 44.53 7.91L44.53 7.91L44.53 7.91Q44.43 8.47 44.43 9.23L44.43 9.23L44.43 9.23Q44.43 9.96 44.53 10.52L44.53 10.52L44.53 10.52Q44.62 11.08 44.84 11.46L44.84 11.46L44.84 11.46Q45.06 11.85 45.43 12.04L45.43 12.04L45.43 12.04Q45.79 12.24 46.35 12.24L46.35 12.24L46.35 12.24Q46.81 12.24 47.14 12.04L47.14 12.04L47.14 12.04Q47.46 11.85 47.67 11.46L47.67 11.46L47.67 11.46Q47.88 11.08 47.97 10.52L47.97 10.52L47.97 10.52Q48.07 9.95 48.07 9.21L48.07 9.21L48.07 9.21Q48.07 8.47 47.97 7.91L47.97 7.91L47.97 7.91Q47.88 7.36 47.67 6.99L47.67 6.99L47.67 6.99Q47.46 6.62 47.13 6.43L47.13 6.43L47.13 6.43Q46.80 6.25 46.33 6.25ZM49.43 9.23L49.43 9.23L49.43 9.23Q49.43 10.24 49.24 10.98L49.24 10.98L49.24 10.98Q49.05 11.72 48.69 12.20L48.69 12.20L48.69 12.20Q48.33 12.67 47.80 12.90L47.80 12.90L47.80 12.90Q47.26 13.13 46.57 13.13L46.57 13.13L46.57 13.13Q46.17 13.13 45.84 13.04L45.84 13.04L45.84 13.04Q45.51 12.95 45.25 12.79L45.25 12.79L45.25 12.79Q44.99 12.63 44.79 12.40L44.79 12.40L44.79 12.40Q44.58 12.17 44.43 11.90L44.43 11.90L44.38 11.90L44.38 11.90Q44.39 12.26 44.41 12.58L44.41 12.58L44.41 12.58Q44.41 12.71 44.42 12.85L44.42 12.85L44.42 12.85Q44.42 12.99 44.42 13.11L44.42 13.11L44.42 13.11Q44.43 13.23 44.43 13.33L44.43 13.33L44.43 13.33Q44.43 13.43 44.43 13.49L44.43 13.49L44.43 14.83L44.43 14.83Q44.43 15.13 44.53 15.32L44.53 15.32L44.53 15.32Q44.62 15.51 44.78 15.61L44.78 15.61L44.78 15.61Q44.93 15.71 45.14 15.74L45.14 15.74L45.14 15.74Q45.35 15.77 45.58 15.77L45.58 15.77L45.62 15.77L45.62 16.36L41.86 16.36L41.86 15.77L41.97 15.77L41.97 15.77Q42.21 15.77 42.41 15.74L42.41 15.74L42.41 15.74Q42.62 15.70 42.78 15.60L42.78 15.60L42.78 15.60Q42.93 15.49 43.02 15.29L43.02 15.29L43.02 15.29Q43.11 15.09 43.11 14.76L43.11 14.76L43.11 7.03L43.11 7.03Q43.11 6.73 43.02 6.54L43.02 6.54L43.02 6.54Q42.93 6.35 42.77 6.25L42.77 6.25L42.77 6.25Q42.62 6.15 42.41 6.11L42.41 6.11L42.41 6.11Q42.20 6.08 41.97 6.08L41.97 6.08L41.79 6.08L41.79 5.49L44.24 5.49L44.38 6.75L44.43 6.75L44.43 6.75Q44.59 6.43 44.79 6.17L44.79 6.17L44.79 6.17Q44.99 5.91 45.25 5.73L45.25 5.73L45.25 5.73Q45.51 5.55 45.83 5.45L45.83 5.45L45.83 5.45Q46.16 5.35 46.57 5.35L46.57 5.35L46.57 5.35Q47.26 5.35 47.80 5.58L47.80 5.58L47.80 5.58Q48.33 5.81 48.69 6.29L48.69 6.29L48.69 6.29Q49.05 6.76 49.24 7.49L49.24 7.49L49.24 7.49Q49.43 8.22 49.43 9.23ZM57.50 9.23L57.50 9.23L57.50 9.23Q57.50 11.20 56.67 12.17L56.67 12.17L56.67 12.17Q55.83 13.13 54.22 13.13L54.22 13.13L54.22 13.13Q53.46 13.13 52.86 12.89L52.86 12.89L52.86 12.89Q52.25 12.65 51.83 12.17L51.83 12.17L51.83 12.17Q51.41 11.68 51.19 10.95L51.19 10.95L51.19 10.95Q50.97 10.21 50.97 9.23L50.97 9.23L50.97 9.23Q50.97 7.27 51.80 6.31L51.80 6.31L51.80 6.31Q52.63 5.35 54.26 5.35L54.26 5.35L54.26 5.35Q55.02 5.35 55.62 5.59L55.62 5.59L55.62 5.59Q56.22 5.82 56.64 6.31L56.64 6.31L56.64 6.31Q57.06 6.79 57.28 7.52L57.28 7.52L57.28 7.52Q57.50 8.24 57.50 9.23ZM52.32 9.23L52.32 9.23L52.32 9.23Q52.32 10.01 52.42 10.60L52.42 10.60L52.42 10.60Q52.53 11.20 52.76 11.60L52.76 11.60L52.76 11.60Q52.99 12.00 53.35 12.20L53.35 12.20L53.35 12.20Q53.72 12.41 54.24 12.41L54.24 12.41L54.24 12.41Q54.77 12.41 55.13 12.20L55.13 12.20L55.13 12.20Q55.49 12.00 55.72 11.60L55.72 11.60L55.72 11.60Q55.95 11.20 56.04 10.60L56.04 10.60L56.04 10.60Q56.14 10.01 56.14 9.23L56.14 9.23L56.14 9.23Q56.14 8.45 56.04 7.86L56.04 7.86L56.04 7.86Q55.94 7.27 55.71 6.88L55.71 6.88L55.71 6.88Q55.49 6.49 55.12 6.29L55.12 6.29L55.12 6.29Q54.76 6.09 54.23 6.09L54.23 6.09L54.23 6.09Q53.70 6.09 53.34 6.29L53.34 6.29L53.34 6.29Q52.98 6.49 52.75 6.88L52.75 6.88L52.75 6.88Q52.53 7.27 52.42 7.86L52.42 7.86L52.42 7.86Q52.32 8.45 52.32 9.23ZM63.01 6.25L63.01 6.25L63.01 6.25Q62.46 6.25 62.09 6.43L62.09 6.43L62.09 6.43Q61.73 6.61 61.51 6.98L61.51 6.98L61.51 6.98Q61.29 7.35 61.20 7.91L61.20 7.91L61.20 7.91Q61.11 8.47 61.11 9.23L61.11 9.23L61.11 9.23Q61.11 9.96 61.20 10.52L61.20 10.52L61.20 10.52Q61.29 11.08 61.51 11.46L61.51 11.46L61.51 11.46Q61.74 11.85 62.10 12.04L62.10 12.04L62.10 12.04Q62.47 12.24 63.02 12.24L63.02 12.24L63.02 12.24Q63.49 12.24 63.81 12.04L63.81 12.04L63.81 12.04Q64.13 11.85 64.34 11.46L64.34 11.46L64.34 11.46Q64.55 11.08 64.65 10.52L64.65 10.52L64.65 10.52Q64.74 9.95 64.74 9.21L64.74 9.21L64.74 9.21Q64.74 8.47 64.65 7.91L64.65 7.91L64.65 7.91Q64.55 7.36 64.34 6.99L64.34 6.99L64.34 6.99Q64.13 6.62 63.80 6.43L63.80 6.43L63.80 6.43Q63.47 6.25 63.01 6.25ZM66.10 9.23L66.10 9.23L66.10 9.23Q66.10 10.24 65.92 10.98L65.92 10.98L65.92 10.98Q65.73 11.72 65.37 12.20L65.37 12.20L65.37 12.20Q65.00 12.67 64.47 12.90L64.47 12.90L64.47 12.90Q63.94 13.13 63.25 13.13L63.25 13.13L63.25 13.13Q62.84 13.13 62.51 13.04L62.51 13.04L62.51 13.04Q62.19 12.95 61.92 12.79L61.92 12.79L61.92 12.79Q61.66 12.63 61.46 12.40L61.46 12.40L61.46 12.40Q61.26 12.17 61.11 11.90L61.11 11.90L61.05 11.90L61.05 11.90Q61.07 12.26 61.08 12.58L61.08 12.58L61.08 12.58Q61.09 12.71 61.09 12.85L61.09 12.85L61.09 12.85Q61.09 12.99 61.10 13.11L61.10 13.11L61.10 13.11Q61.10 13.23 61.10 13.33L61.10 13.33L61.10 13.33Q61.11 13.43 61.11 13.49L61.11 13.49L61.11 14.83L61.11 14.83Q61.11 15.13 61.20 15.32L61.20 15.32L61.20 15.32Q61.29 15.51 61.45 15.61L61.45 15.61L61.45 15.61Q61.61 15.71 61.81 15.74L61.81 15.74L61.81 15.74Q62.02 15.77 62.25 15.77L62.25 15.77L62.30 15.77L62.30 16.36L58.53 16.36L58.53 15.77L58.64 15.77L58.64 15.77Q58.88 15.77 59.09 15.74L59.09 15.74L59.09 15.74Q59.29 15.70 59.45 15.60L59.45 15.60L59.45 15.60Q59.60 15.49 59.69 15.29L59.69 15.29L59.69 15.29Q59.79 15.09 59.79 14.76L59.79 14.76L59.79 7.03L59.79 7.03Q59.79 6.73 59.69 6.54L59.69 6.54L59.69 6.54Q59.60 6.35 59.45 6.25L59.45 6.25L59.45 6.25Q59.29 6.15 59.08 6.11L59.08 6.11L59.08 6.11Q58.87 6.08 58.64 6.08L58.64 6.08L58.46 6.08L58.46 5.49L60.91 5.49L61.05 6.75L61.11 6.75L61.11 6.75Q61.26 6.43 61.46 6.17L61.46 6.17L61.46 6.17Q61.66 5.91 61.92 5.73L61.92 5.73L61.92 5.73Q62.18 5.55 62.51 5.45L62.51 5.45L62.51 5.45Q62.84 5.35 63.25 5.35L63.25 5.35L63.25 5.35Q63.94 5.35 64.47 5.58L64.47 5.58L64.47 5.58Q65.00 5.81 65.37 6.29L65.37 6.29L65.37 6.29Q65.73 6.76 65.92 7.49L65.92 7.49L65.92 7.49Q66.10 8.22 66.10 9.23ZM74.25 5.49L74.25 11.47L74.25 11.47Q74.25 11.78 74.34 11.97L74.34 11.97L74.34 11.97Q74.43 12.15 74.59 12.25L74.59 12.25L74.59 12.25Q74.74 12.35 74.95 12.38L74.95 12.38L74.95 12.38Q75.16 12.41 75.39 12.41L75.39 12.41L75.43 12.41L75.43 13.00L73.21 13.00L73.03 11.86L72.96 11.86L72.96 11.86Q72.75 12.26 72.49 12.50L72.49 12.50L72.49 12.50Q72.24 12.75 71.95 12.89L71.95 12.89L71.95 12.89Q71.66 13.03 71.35 13.08L71.35 13.08L71.35 13.08Q71.03 13.13 70.69 13.13L70.69 13.13L70.69 13.13Q70.14 13.13 69.71 12.97L69.71 12.97L69.71 12.97Q69.28 12.82 68.98 12.48L68.98 12.48L68.98 12.48Q68.69 12.15 68.53 11.63L68.53 11.63L68.53 11.63Q68.38 11.11 68.38 10.39L68.38 10.39L68.38 7.03L68.38 7.03Q68.38 6.73 68.29 6.54L68.29 6.54L68.29 6.54Q68.20 6.35 68.04 6.25L68.04 6.25L68.04 6.25Q67.88 6.15 67.67 6.11L67.67 6.11L67.67 6.11Q67.46 6.08 67.23 6.08L67.23 6.08L67.19 6.08L67.19 5.49L69.70 5.49L69.70 10.32L69.70 10.32Q69.70 10.78 69.77 11.14L69.77 11.14L69.77 11.14Q69.84 11.49 70.01 11.74L70.01 11.74L70.01 11.74Q70.18 11.98 70.46 12.11L70.46 12.11L70.46 12.11Q70.75 12.24 71.17 12.24L71.17 12.24L71.17 12.24Q71.63 12.24 71.97 12.07L71.97 12.07L71.97 12.07Q72.30 11.91 72.51 11.61L72.51 11.61L72.51 11.61Q72.73 11.31 72.83 10.90L72.83 10.90L72.83 10.90Q72.93 10.48 72.93 9.97L72.93 9.97L72.93 7.09L72.93 7.09Q72.93 6.76 72.84 6.56L72.84 6.56L72.84 6.56Q72.75 6.36 72.59 6.25L72.59 6.25L72.59 6.25Q72.44 6.15 72.23 6.11L72.23 6.11L72.23 6.11Q72.02 6.08 71.78 6.08L71.78 6.08L71.74 6.08L71.74 5.49L74.25 5.49ZM75.94 12.41L76.12 12.41L76.12 12.41Q76.36 12.41 76.57 12.37L76.57 12.37L76.57 12.37Q76.77 12.34 76.93 12.23L76.93 12.23L76.93 12.23Q77.08 12.13 77.17 11.93L77.17 11.93L77.17 11.93Q77.27 11.73 77.27 11.40L77.27 11.40L77.27 3.90L77.27 3.90Q77.27 3.59 77.17 3.40L77.17 3.40L77.17 3.40Q77.08 3.21 76.92 3.11L76.92 3.11L76.92 3.11Q76.77 3.01 76.56 2.98L76.56 2.98L76.56 2.98Q76.35 2.95 76.12 2.95L76.12 2.95L75.94 2.95L75.94 2.36L78.59 2.36L78.59 11.40L78.59 11.40Q78.59 11.73 78.67 11.93L78.67 11.93L78.67 11.93Q78.76 12.13 78.92 12.23L78.92 12.23L78.92 12.23Q79.08 12.34 79.29 12.37L79.29 12.37L79.29 12.37Q79.50 12.41 79.73 12.41L79.73 12.41L79.91 12.41L79.91 13.00L75.94 13.00L75.94 12.41ZM82.15 10.96L82.15 10.96L82.15 10.96Q82.15 11.62 82.43 11.95L82.43 11.95L82.43 11.95Q82.71 12.27 83.29 12.27L83.29 12.27L83.29 12.27Q83.71 12.27 84.06 12.13L84.06 12.13L84.06 12.13Q84.40 12.00 84.65 11.74L84.65 11.74L84.65 11.74Q84.89 11.49 85.02 11.13L85.02 11.13L85.02 11.13Q85.15 10.77 85.15 10.32L85.15 10.32L85.15 9.19L84.25 9.23L84.25 9.23Q83.66 9.26 83.26 9.38L83.26 9.38L83.26 9.38Q82.86 9.50 82.61 9.71L82.61 9.71L82.61 9.71Q82.37 9.93 82.26 10.24L82.26 10.24L82.26 10.24Q82.15 10.55 82.15 10.96ZM83.85 6.05L83.85 6.05L83.85 6.05Q83.45 6.05 83.20 6.16L83.20 6.16L83.20 6.16Q82.95 6.28 82.81 6.48L82.81 6.48L82.81 6.48Q82.67 6.69 82.62 6.97L82.62 6.97L82.62 6.97Q82.57 7.25 82.57 7.57L82.57 7.57L82.57 7.57Q81.99 7.57 81.69 7.38L81.69 7.38L81.69 7.38Q81.38 7.18 81.38 6.69L81.38 6.69L81.38 6.69Q81.38 6.33 81.58 6.08L81.58 6.08L81.58 6.08Q81.78 5.82 82.12 5.66L82.12 5.66L82.12 5.66Q82.47 5.50 82.93 5.43L82.93 5.43L82.93 5.43Q83.38 5.35 83.90 5.35L83.90 5.35L83.90 5.35Q84.55 5.35 85.03 5.48L85.03 5.48L85.03 5.48Q85.50 5.61 85.83 5.89L85.83 5.89L85.83 5.89Q86.15 6.18 86.31 6.64L86.31 6.64L86.31 6.64Q86.47 7.10 86.47 7.77L86.47 7.77L86.47 11.40L86.47 11.40Q86.47 11.70 86.52 11.89L86.52 11.89L86.52 11.89Q86.56 12.08 86.67 12.20L86.67 12.20L86.67 12.20Q86.77 12.31 86.94 12.36L86.94 12.36L86.94 12.36Q87.10 12.41 87.34 12.41L87.34 12.41L87.38 12.41L87.38 13.00L85.48 13.00L85.26 11.79L85.15 11.79L85.15 11.79Q84.93 12.09 84.72 12.33L84.72 12.33L84.72 12.33Q84.52 12.58 84.27 12.76L84.27 12.76L84.27 12.76Q84.03 12.93 83.72 13.03L83.72 13.03L83.72 13.03Q83.41 13.13 82.97 13.13L82.97 13.13L82.97 13.13Q82.50 13.13 82.10 13.00L82.10 13.00L82.10 13.00Q81.70 12.87 81.41 12.59L81.41 12.59L81.41 12.59Q81.12 12.31 80.96 11.89L80.96 11.89L80.96 11.89Q80.79 11.47 80.79 10.90L80.79 10.90L80.79 10.90Q80.79 9.78 81.59 9.24L81.59 9.24L81.59 9.24Q82.38 8.70 83.99 8.65L83.99 8.65L85.15 8.61L85.15 7.77L85.15 7.77Q85.15 7.40 85.11 7.08L85.11 7.08L85.11 7.08Q85.07 6.76 84.93 6.53L84.93 6.53L84.93 6.53Q84.79 6.30 84.54 6.18L84.54 6.18L84.54 6.18Q84.28 6.05 83.85 6.05ZM92.48 12.41L92.48 13.00L88.44 13.00L88.44 12.41L88.48 12.41L88.48 12.41Q88.72 12.41 88.93 12.37L88.93 12.37L88.93 12.37Q89.14 12.34 89.29 12.23L89.29 12.23L89.29 12.23Q89.45 12.13 89.54 11.93L89.54 11.93L89.54 11.93Q89.63 11.73 89.63 11.40L89.63 11.40L89.63 7.03L89.63 7.03Q89.63 6.73 89.54 6.54L89.54 6.54L89.54 6.54Q89.45 6.35 89.29 6.25L89.29 6.25L89.29 6.25Q89.13 6.15 88.93 6.11L88.93 6.11L88.93 6.11Q88.72 6.08 88.48 6.08L88.48 6.08L88.44 6.08L88.44 5.49L90.60 5.49L90.86 6.88L90.93 6.88L90.93 6.88Q91.07 6.56 91.21 6.29L91.21 6.29L91.21 6.29Q91.36 6.01 91.56 5.80L91.56 5.80L91.56 5.80Q91.77 5.59 92.08 5.47L92.08 5.47L92.08 5.47Q92.39 5.35 92.85 5.35L92.85 5.35L92.85 5.35Q93.62 5.35 93.99 5.62L93.99 5.62L93.99 5.62Q94.36 5.89 94.36 6.37L94.36 6.37L94.36 6.37Q94.36 6.59 94.29 6.77L94.29 6.77L94.29 6.77Q94.22 6.96 94.06 7.09L94.06 7.09L94.06 7.09Q93.91 7.23 93.66 7.30L93.66 7.30L93.66 7.30Q93.41 7.37 93.06 7.37L93.06 7.37L93.06 7.37Q93.06 6.79 92.89 6.53L92.89 6.53L92.89 6.53Q92.73 6.28 92.32 6.28L92.32 6.28L92.32 6.28Q92.06 6.28 91.85 6.42L91.85 6.42L91.85 6.42Q91.65 6.57 91.50 6.81L91.50 6.81L91.50 6.81Q91.34 7.05 91.24 7.37L91.24 7.37L91.24 7.37Q91.13 7.68 91.06 8.02L91.06 8.02L91.06 8.02Q91 8.35 90.97 8.67L90.97 8.67L90.97 8.67Q90.95 9.00 90.95 9.27L90.95 9.27L90.95 11.47L90.95 11.47Q90.95 11.78 91.04 11.97L91.04 11.97L91.04 11.97Q91.13 12.15 91.29 12.25L91.29 12.25L91.29 12.25Q91.44 12.35 91.65 12.38L91.65 12.38L91.65 12.38Q91.86 12.41 92.09 12.41L92.09 12.41L92.48 12.41ZM107.80 7.98L107.80 7.98L107.80 7.98Q107.80 9.14 107.52 10.09L107.52 10.09L107.52 10.09Q107.23 11.04 106.67 11.72L106.67 11.72L106.67 11.72Q106.11 12.39 105.29 12.76L105.29 12.76L105.29 12.76Q104.47 13.13 103.41 13.13L103.41 13.13L103.41 13.13Q102.29 13.13 101.47 12.76L101.47 12.76L101.47 12.76Q100.64 12.39 100.09 11.72L100.09 11.72L100.09 11.72Q99.54 11.04 99.27 10.09L99.27 10.09L99.27 10.09Q99.00 9.13 99.00 7.97L99.00 7.97L99.00 7.97Q99.00 6.81 99.27 5.86L99.27 5.86L99.27 5.86Q99.54 4.92 100.09 4.25L100.09 4.25L100.09 4.25Q100.64 3.58 101.47 3.21L101.47 3.21L101.47 3.21Q102.31 2.84 103.42 2.84L103.42 2.84L103.42 2.84Q104.48 2.84 105.29 3.21L105.29 3.21L105.29 3.21Q106.11 3.58 106.67 4.25L106.67 4.25L106.67 4.25Q107.23 4.92 107.52 5.87L107.52 5.87L107.52 5.87Q107.80 6.82 107.80 7.98ZM100.55 7.98L100.55 7.98L100.55 7.98Q100.55 9.02 100.70 9.84L100.70 9.84L100.70 9.84Q100.86 10.66 101.20 11.22L101.20 11.22L101.20 11.22Q101.54 11.79 102.08 12.08L102.08 12.08L102.08 12.08Q102.63 12.38 103.41 12.38L103.41 12.38L103.41 12.38Q104.19 12.38 104.73 12.08L104.73 12.08L104.73 12.08Q105.27 11.79 105.61 11.22L105.61 11.22L105.61 11.22Q105.95 10.66 106.10 9.84L106.10 9.84L106.10 9.84Q106.25 9.02 106.25 7.98L106.25 7.98L106.25 7.98Q106.25 6.95 106.10 6.13L106.10 6.13L106.10 6.13Q105.95 5.31 105.61 4.75L105.61 4.75L105.61 4.75Q105.27 4.19 104.74 3.90L104.74 3.90L104.74 3.90Q104.20 3.60 103.42 3.60L103.42 3.60L103.42 3.60Q102.64 3.60 102.09 3.90L102.09 3.90L102.09 3.90Q101.55 4.19 101.20 4.75L101.20 4.75L101.20 4.75Q100.86 5.31 100.70 6.13L100.70 6.13L100.70 6.13Q100.55 6.95 100.55 7.98ZM112.72 12.41L112.76 12.41L112.76 13.00L108.99 13.00L108.99 12.41L109.11 12.41L109.11 12.41Q109.35 12.41 109.56 12.37L109.56 12.37L109.56 12.37Q109.76 12.34 109.92 12.23L109.92 12.23L109.92 12.23Q110.07 12.13 110.16 11.93L110.16 11.93L110.16 11.93Q110.26 11.73 110.26 11.40L110.26 11.40L110.26 7.03L110.26 7.03Q110.26 6.73 110.16 6.54L110.16 6.54L110.16 6.54Q110.07 6.35 109.92 6.25L109.92 6.25L109.92 6.25Q109.76 6.15 109.55 6.11L109.55 6.11L109.55 6.11Q109.34 6.08 109.11 6.08L109.11 6.08L109.07 6.08L109.07 5.49L111.33 5.49L111.51 6.62L111.58 6.62L111.58 6.62Q111.80 6.23 112.04 5.98L112.04 5.98L112.04 5.98Q112.29 5.74 112.56 5.60L112.56 5.60L112.56 5.60Q112.83 5.46 113.13 5.40L113.13 5.40L113.13 5.40Q113.44 5.35 113.77 5.35L113.77 5.35L113.77 5.35Q114.32 5.35 114.76 5.51L114.76 5.51L114.76 5.51Q115.19 5.67 115.50 6.01L115.50 6.01L115.50 6.01Q115.80 6.34 115.96 6.86L115.96 6.86L115.96 6.86Q116.12 7.38 116.12 8.09L116.12 8.09L116.12 11.40L116.12 11.40Q116.12 11.73 116.20 11.93L116.20 11.93L116.20 11.93Q116.28 12.13 116.42 12.23L116.42 12.23L116.42 12.23Q116.57 12.34 116.76 12.37L116.76 12.37L116.76 12.37Q116.96 12.41 117.20 12.41L117.20 12.41L117.24 12.41L117.24 13.00L114.80 13.00L114.80 8.16L114.80 8.16Q114.80 7.70 114.72 7.35L114.72 7.35L114.72 7.35Q114.64 6.99 114.46 6.75L114.46 6.75L114.46 6.75Q114.28 6.50 113.98 6.37L113.98 6.37L113.98 6.37Q113.69 6.25 113.26 6.25L113.26 6.25L113.26 6.25Q112.79 6.25 112.46 6.43L112.46 6.43L112.46 6.43Q112.14 6.62 111.94 6.93L111.94 6.93L111.94 6.93Q111.74 7.25 111.65 7.66L111.65 7.66L111.65 7.66Q111.57 8.07 111.57 8.52L111.57 8.52L111.57 11.47L111.57 11.47Q111.57 11.78 111.66 11.97L111.66 11.97L111.66 11.97Q111.75 12.15 111.91 12.25L111.91 12.25L111.91 12.25Q112.07 12.35 112.28 12.38L112.28 12.38L112.28 12.38Q112.49 12.41 112.72 12.41L112.72 12.41ZM121.48 6.10L121.48 6.10L121.48 6.10Q120.70 6.10 120.28 6.74L120.28 6.74L120.28 6.74Q119.86 7.37 119.79 8.59L119.79 8.59L123.01 8.59L123.01 8.59Q123.01 8.03 122.92 7.57L122.92 7.57L122.92 7.57Q122.84 7.12 122.66 6.79L122.66 6.79L122.66 6.79Q122.49 6.46 122.20 6.28L122.20 6.28L122.20 6.28Q121.91 6.10 121.48 6.10ZM121.65 13.13L121.65 13.13L121.65 13.13Q120.89 13.13 120.29 12.88L120.29 12.88L120.29 12.88Q119.68 12.62 119.27 12.13L119.27 12.13L119.27 12.13Q118.85 11.63 118.63 10.92L118.63 10.92L118.63 10.92Q118.41 10.21 118.41 9.30L118.41 9.30L118.41 9.30Q118.41 7.33 119.21 6.34L119.21 6.34L119.21 6.34Q120.02 5.35 121.51 5.35L121.51 5.35L121.51 5.35Q122.19 5.35 122.73 5.56L122.73 5.56L122.73 5.56Q123.27 5.78 123.64 6.20L123.64 6.20L123.64 6.20Q124.02 6.62 124.22 7.24L124.22 7.24L124.22 7.24Q124.42 7.87 124.42 8.70L124.42 8.70L124.42 9.34L119.76 9.34L119.76 9.34Q119.77 10.10 119.91 10.65L119.91 10.65L119.91 10.65Q120.05 11.20 120.32 11.56L120.32 11.56L120.32 11.56Q120.58 11.92 120.96 12.08L120.96 12.08L120.96 12.08Q121.34 12.25 121.84 12.25L121.84 12.25L121.84 12.25Q122.21 12.25 122.52 12.17L122.52 12.17L122.52 12.17Q122.83 12.09 123.08 11.95L123.08 11.95L123.08 11.95Q123.33 11.81 123.53 11.64L123.53 11.64L123.53 11.64Q123.72 11.46 123.85 11.27L123.85 11.27L123.85 11.27Q123.94 11.31 124.03 11.44L124.03 11.44L124.03 11.44Q124.11 11.57 124.11 11.75L124.11 11.75L124.11 11.75Q124.11 11.96 123.96 12.21L123.96 12.21L123.96 12.21Q123.81 12.45 123.50 12.65L123.50 12.65L123.50 12.65Q123.20 12.86 122.74 13.00L122.74 13.00L122.74 13.00Q122.27 13.13 121.65 13.13Z"></path></g><!----><!----><g data-v-423bf9ae="" id="5d6da19e-f72c-496e-8ec6-ea8dd8fa5d06" fill="black" transform="matrix(5.946481704711914,0,0,5.946481704711914,-3.0922796726226807,115.75520324707031)"><path d="M0.52 3.49C0.52 3.72 0.63 3.74 0.80 3.74L1.41 3.74C1.47 3.74 1.54 4.79 1.54 5.71C1.54 5.80 1.60 8.27 1.60 9.83L1.60 11.17C1.60 11.84 1.58 12.18 1.53 12.18L0.94 12.18C0.71 12.18 0.64 12.19 0.64 12.39C0.64 12.63 0.66 12.68 0.85 12.68C1.06 12.68 1.90 12.64 2.32 12.64C2.74 12.64 3.68 12.68 4.00 12.68C4.17 12.68 4.20 12.61 4.20 12.40C4.20 12.24 4.17 12.18 4.00 12.18L2.87 12.18C2.81 12.18 2.83 10.16 2.79 8.33C2.79 8.08 2.77 8.09 2.97 8.09L5.39 8.09C6.09 8.09 6.12 8.19 6.12 8.30L6.12 9.16C6.12 9.28 6.30 9.28 6.41 9.28C6.51 9.28 6.64 9.28 6.64 9.17C6.64 8.99 6.61 8.33 6.61 7.83C6.61 7.32 6.64 6.82 6.64 6.69C6.64 6.58 6.52 6.58 6.40 6.58C6.23 6.58 6.12 6.58 6.12 6.71L6.12 7.45C6.12 7.62 5.67 7.63 5.39 7.63L2.97 7.63C2.76 7.63 2.79 7.66 2.79 7.45C2.77 7.13 2.76 6.15 2.76 5.26C2.76 4.52 2.77 3.71 2.84 3.71C4.24 3.71 6.43 3.75 6.72 3.79C6.72 3.96 6.68 4.82 6.68 4.89C6.68 5.04 6.75 5.10 6.93 5.10C7.13 5.10 7.20 5.08 7.20 4.94C7.20 3.85 7.25 3.36 7.25 3.09C7.25 2.93 7.17 2.90 6.97 2.90C6.85 2.90 6.78 2.90 6.75 3.11C6.73 3.25 6.80 3.25 5.85 3.25C5.25 3.25 2.97 3.29 2.23 3.29C1.74 3.29 0.80 3.25 0.70 3.25C0.57 3.25 0.52 3.30 0.52 3.49ZM15.22 12.39C15.22 12.63 15.25 12.68 15.44 12.68C15.76 12.68 16.73 12.64 17.15 12.64C17.57 12.64 22.08 12.68 22.40 12.68C22.53 12.68 22.68 12.66 22.68 12.49C22.68 12.07 22.72 11.23 22.72 10.53C22.72 10.39 22.57 10.39 22.44 10.39C22.33 10.39 22.20 10.39 22.20 10.51C22.19 11.06 22.19 11.41 22.16 11.76C22.13 12.01 22.13 12.04 22.04 12.04C21.88 12.04 19.25 12.08 17.75 12.08C17.68 12.08 17.64 10.11 17.60 8.26C17.60 8.06 17.64 8.09 17.78 8.09L20.06 8.09C20.76 8.09 20.79 8.20 20.79 8.30L20.79 9.00C20.79 9.14 20.97 9.14 21.08 9.14C21.18 9.14 21.31 9.13 21.31 9.02C21.31 8.83 21.28 8.33 21.28 7.83C21.28 7.32 21.31 6.83 21.31 6.71C21.31 6.59 21.17 6.58 21.07 6.58C20.96 6.58 20.79 6.59 20.79 6.72L20.79 7.45C20.79 7.62 20.34 7.63 20.06 7.63L17.72 7.63C17.61 7.63 17.60 7.63 17.60 7.45C17.58 6.75 17.57 6.06 17.57 5.46C17.57 5.12 17.57 3.71 17.65 3.71C18.89 3.71 21.39 3.75 21.39 3.81C21.39 3.99 21.35 4.83 21.35 4.89C21.35 5.04 21.42 5.10 21.60 5.10C21.80 5.10 21.87 5.08 21.87 4.94C21.87 3.85 21.92 3.36 21.92 3.09C21.92 2.91 21.84 2.90 21.64 2.90C21.45 2.90 21.45 2.95 21.42 3.11C21.41 3.25 21.48 3.25 20.57 3.25C19.95 3.25 17.81 3.29 17.04 3.29C16.55 3.29 15.61 3.25 15.51 3.25C15.39 3.25 15.33 3.30 15.33 3.49C15.33 3.72 15.40 3.74 15.57 3.74L16.23 3.74C16.28 3.74 16.35 4.79 16.35 5.71C16.35 5.80 16.41 8.27 16.41 9.83L16.41 11.17C16.41 11.84 16.38 12.18 16.35 12.18L15.50 12.18C15.27 12.18 15.22 12.21 15.22 12.39ZM30.27 3.51C30.27 3.75 30.38 3.77 30.55 3.77L31.05 3.77C31.14 3.77 33.28 10.99 33.31 11.07C33.66 12.14 33.77 12.99 34.08 12.99C34.30 12.99 34.40 12.67 34.68 12.26C34.83 12.05 34.93 12.01 35.07 11.66L37.06 6.45C37.13 6.29 37.16 6.20 37.18 6.20C37.21 6.20 37.24 6.29 37.28 6.45C37.88 8.51 38.56 11.03 38.57 11.07C38.92 12.14 39.03 12.99 39.34 12.99C39.56 12.99 39.66 12.67 39.94 12.26C40.10 12.05 40.19 12.01 40.33 11.66L43.43 4.06C43.53 3.81 43.53 3.77 43.89 3.77C44.13 3.77 44.18 3.71 44.18 3.53C44.18 3.32 44.14 3.26 43.95 3.26C43.81 3.26 43.50 3.30 42.99 3.30C42.25 3.30 41.75 3.26 41.55 3.26C41.37 3.26 41.27 3.28 41.27 3.51C41.27 3.75 41.38 3.77 41.55 3.77L42.46 3.77C42.53 3.77 42.55 3.81 42.55 3.95C42.55 4.63 40.95 8.72 40.24 10.63C40.10 10.99 40.03 11.17 39.98 11.17C39.93 11.17 39.87 10.99 39.75 10.60C39.66 10.30 38.74 7.18 38.21 5.22C38.16 5.05 37.95 4.17 37.95 3.85C37.95 3.81 37.95 3.79 37.97 3.77L38.85 3.77C39.03 3.77 39.13 3.75 39.13 3.56C39.13 3.32 39.09 3.26 38.89 3.26C38.57 3.26 37.63 3.30 37.21 3.30C36.79 3.30 35.88 3.26 35.66 3.26C35.48 3.26 35.38 3.28 35.38 3.51C35.38 3.75 35.49 3.77 35.66 3.77L36.46 3.77C36.50 3.77 36.68 4.27 36.83 4.83C36.89 5.05 36.93 5.15 36.93 5.25C36.93 5.31 36.93 5.38 36.89 5.49L34.89 10.60C34.79 10.82 34.76 10.95 34.72 10.95C34.68 10.95 34.65 10.84 34.57 10.60C34.48 10.32 33.47 7.27 32.87 5.22C32.83 5.08 32.51 3.96 32.49 3.85C32.51 3.77 32.55 3.77 32.59 3.77L33.29 3.77C33.52 3.77 33.59 3.75 33.59 3.56C33.59 3.32 33.54 3.26 33.35 3.26C33.03 3.26 32.31 3.30 31.89 3.30C31.47 3.30 30.77 3.26 30.55 3.26C30.37 3.26 30.27 3.28 30.27 3.51ZM61.33 5.01C61.33 5.17 61.52 5.17 61.64 5.17C61.80 5.17 61.84 5.15 61.85 4.97L61.96 3.89C61.98 3.81 62.52 3.75 63.28 3.75L65.27 3.75C65.32 3.75 65.35 4.35 65.35 4.97C65.35 6.43 65.30 12.18 65.17 12.18L64.30 12.18C64.08 12.18 64.04 12.19 64.04 12.39C64.04 12.63 64.05 12.68 64.25 12.68C64.57 12.68 65.55 12.64 65.97 12.64C66.39 12.64 67.33 12.68 67.65 12.68C67.82 12.68 67.84 12.61 67.84 12.40C67.84 12.24 67.82 12.18 67.65 12.18L66.65 12.18C66.63 12.18 66.63 11.76 66.63 11.31C66.63 9.56 66.71 5.96 66.71 5.92C66.72 5.18 66.72 3.75 66.82 3.75L68.43 3.75C69.15 3.75 69.97 3.78 69.97 3.85C69.97 3.99 69.93 4.90 69.93 4.97C69.93 5.12 70 5.17 70.18 5.17C70.38 5.17 70.45 5.17 70.45 5.03C70.45 3.93 70.50 3.40 70.50 3.14C70.50 2.94 70.42 2.94 70.22 2.94C70.07 2.94 70.01 2.98 70 3.16C70 3.23 69.36 3.28 68.52 3.28L63.52 3.28C62.86 3.28 62.05 3.28 62.05 3.21L62.05 3.07C62.05 2.94 61.92 2.94 61.82 2.94C61.60 2.94 61.57 3.00 61.56 3.19C61.50 3.89 61.33 4.97 61.33 5.01ZM78.26 12.39C78.26 12.63 78.26 12.68 78.46 12.68C78.78 12.68 79.72 12.64 80.14 12.64C80.56 12.64 81.38 12.68 81.70 12.68C81.87 12.68 81.87 12.61 81.87 12.40C81.87 12.24 81.87 12.18 81.70 12.18L80.78 12.18C80.70 12.18 80.65 9.93 80.65 8.20C80.65 8.01 80.65 8.01 80.78 8.01L86.02 8.01C86.09 8.01 86.10 8.01 86.10 8.18L86.10 9.91C86.10 11.05 86.09 12.18 86.03 12.18L85.26 12.18C85.04 12.18 84.99 12.19 84.99 12.39C84.99 12.63 85.01 12.68 85.20 12.68C85.53 12.68 86.37 12.64 86.79 12.64C87.21 12.64 87.79 12.68 88.12 12.68C88.28 12.68 88.30 12.61 88.30 12.40C88.30 12.24 88.28 12.18 88.12 12.18L87.37 12.18C87.33 12.18 87.32 9.27 87.32 7.04C87.32 5.40 87.32 3.70 87.36 3.70L87.98 3.70C88.20 3.70 88.24 3.68 88.24 3.49C88.24 3.25 88.23 3.19 88.03 3.19C87.89 3.19 87.26 3.23 86.67 3.23C86.00 3.23 85.40 3.19 85.18 3.19C84.98 3.19 84.95 3.22 84.95 3.44C84.95 3.67 85.02 3.70 85.19 3.70L85.99 3.70C86.04 3.70 86.10 4.79 86.10 5.71L86.10 7.42C86.10 7.59 86.10 7.59 85.93 7.59L80.82 7.59C80.65 7.59 80.65 7.59 80.65 7.38C80.65 6.96 80.64 6.23 80.64 5.53C80.64 4.66 80.65 3.70 80.71 3.70L81.48 3.70C81.70 3.70 81.75 3.68 81.75 3.49C81.75 3.25 81.73 3.19 81.54 3.19C81.21 3.19 80.63 3.23 80.02 3.23C79.44 3.23 78.95 3.19 78.72 3.19C78.54 3.19 78.44 3.21 78.44 3.44C78.44 3.68 78.55 3.70 78.72 3.70L79.34 3.70C79.39 3.70 79.41 5.59 79.41 7.18L79.41 8.61C79.41 10.08 79.39 12.18 79.32 12.18L78.51 12.18C78.29 12.18 78.26 12.19 78.26 12.39ZM96.40 8.15C96.40 11.17 98.74 12.80 101.00 12.80C103.78 12.80 105.76 10.89 105.76 8.06C105.76 5.33 104.01 3.11 101.21 3.11C98.60 3.11 96.40 5.10 96.40 8.15ZM97.80 7.77C97.80 5.64 99.09 3.58 101.07 3.58C103.31 3.58 104.38 5.81 104.38 7.94C104.38 10.08 103.28 12.32 101.01 12.32C99.02 12.32 97.80 10.28 97.80 7.77ZM113.86 3.51C113.86 3.75 113.95 3.77 114.11 3.77L114.65 3.77C114.70 3.77 114.70 4.12 114.70 4.55C114.70 5.66 114.69 8.96 114.69 9.42C114.69 11.13 114.94 12.80 117.80 12.80C118.87 12.80 120.04 12.38 120.69 12.00C120.95 11.86 121.24 11.72 121.32 11.72C121.59 11.72 121.86 12.74 122.19 12.74C122.51 12.74 122.53 12.35 122.53 12.25C122.53 11.96 122.58 10.08 122.63 8.16C122.68 6.12 122.67 3.77 122.78 3.77L123.10 3.77C123.33 3.77 123.40 3.75 123.40 3.56C123.40 3.32 123.35 3.26 123.16 3.26C123.02 3.26 122.49 3.30 122.07 3.30C121.65 3.30 120.85 3.26 120.62 3.26C120.44 3.26 120.34 3.28 120.34 3.51C120.34 3.75 120.46 3.77 120.62 3.77L121.32 3.77C121.39 3.77 121.41 4.30 121.41 4.87L121.41 9.14C121.41 11.19 121.41 11.12 121.07 11.34C120.68 11.61 119.87 12.08 118.69 12.08C116.72 12.08 115.92 11.17 115.92 9.41C115.92 8.82 115.99 3.77 116.10 3.77L117.01 3.77C117.24 3.77 117.28 3.75 117.28 3.56C117.28 3.32 117.26 3.26 117.07 3.26C116.75 3.26 115.86 3.30 115.44 3.30C115.02 3.30 114.34 3.26 114.11 3.26C113.93 3.26 113.86 3.28 113.86 3.51ZM131.50 7.91C131.50 11.40 133.87 12.89 136.46 12.89C138.35 12.89 140.35 11.89 140.35 11.58C140.35 11.12 140.36 10.68 140.36 10.33C140.36 9.81 140.38 9.56 140.50 9.56L140.94 9.56C141.08 9.56 141.09 9.39 141.09 9.30C141.09 9.18 141.08 9.06 140.94 9.06C140.71 9.06 140.35 9.10 139.68 9.10C139.23 9.10 138.49 9.07 137.80 9.06C137.66 9.06 137.66 9.24 137.66 9.35C137.66 9.45 137.69 9.56 137.82 9.56L139.03 9.56C139.08 9.56 139.13 9.87 139.13 10.33C139.13 10.82 139.12 11.41 139.09 11.65C139.08 11.76 138.43 12.39 136.85 12.39C134.61 12.39 133.01 10.29 133.01 7.94C133.01 5.42 134.57 3.54 136.57 3.54C138.46 3.54 139.64 4.87 139.64 5.03C139.64 5.15 139.58 6.12 139.58 6.17C139.58 6.31 139.62 6.36 139.89 6.36C140.08 6.36 140.15 6.33 140.15 6.15C140.15 5.43 140.20 3.75 140.20 3.56C140.20 3.36 140.10 3.33 139.89 3.33C139.66 3.33 139.64 3.39 139.64 3.56L139.64 3.91C139.64 3.99 139.59 4.02 139.47 3.92C139.19 3.72 138.19 3.08 136.63 3.08C133.78 3.08 131.50 4.79 131.50 7.91ZM149.13 12.39C149.13 12.63 149.13 12.68 149.32 12.68C149.65 12.68 150.58 12.64 151.00 12.64C151.42 12.64 152.25 12.68 152.57 12.68C152.74 12.68 152.74 12.61 152.74 12.40C152.74 12.24 152.74 12.18 152.57 12.18L151.65 12.18C151.56 12.18 151.52 9.93 151.52 8.20C151.52 8.01 151.52 8.01 151.65 8.01L156.88 8.01C156.95 8.01 156.97 8.01 156.97 8.18L156.97 9.91C156.97 11.05 156.95 12.18 156.90 12.18L156.13 12.18C155.90 12.18 155.86 12.19 155.86 12.39C155.86 12.63 155.88 12.68 156.07 12.68C156.39 12.68 157.23 12.64 157.65 12.64C158.07 12.64 158.66 12.68 158.98 12.68C159.15 12.68 159.17 12.61 159.17 12.40C159.17 12.24 159.15 12.18 158.98 12.18L158.24 12.18C158.20 12.18 158.19 9.27 158.19 7.04C158.19 5.40 158.19 3.70 158.23 3.70L158.84 3.70C159.07 3.70 159.11 3.68 159.11 3.49C159.11 3.25 159.10 3.19 158.90 3.19C158.76 3.19 158.13 3.23 157.54 3.23C156.87 3.23 156.27 3.19 156.04 3.19C155.85 3.19 155.82 3.22 155.82 3.44C155.82 3.67 155.89 3.70 156.06 3.70L156.86 3.70C156.91 3.70 156.97 4.79 156.97 5.71L156.97 7.42C156.97 7.59 156.97 7.59 156.80 7.59L151.69 7.59C151.52 7.59 151.52 7.59 151.52 7.38C151.52 6.96 151.51 6.23 151.51 5.53C151.51 4.66 151.52 3.70 151.58 3.70L152.35 3.70C152.57 3.70 152.61 3.68 152.61 3.49C152.61 3.25 152.60 3.19 152.40 3.19C152.08 3.19 151.49 3.23 150.89 3.23C150.30 3.23 149.81 3.19 149.59 3.19C149.41 3.19 149.31 3.21 149.31 3.44C149.31 3.68 149.42 3.70 149.59 3.70L150.21 3.70C150.26 3.70 150.28 5.59 150.28 7.18L150.28 8.61C150.28 10.08 150.26 12.18 150.19 12.18L149.38 12.18C149.16 12.18 149.13 12.19 149.13 12.39ZM166.94 5.01C166.94 5.17 167.12 5.17 167.24 5.17C167.40 5.17 167.44 5.15 167.45 4.97L167.57 3.89C167.58 3.81 168.13 3.75 168.88 3.75L170.87 3.75C170.93 3.75 170.95 4.35 170.95 4.97C170.95 6.43 170.90 12.18 170.77 12.18L169.90 12.18C169.68 12.18 169.64 12.19 169.64 12.39C169.64 12.63 169.65 12.68 169.85 12.68C170.17 12.68 171.15 12.64 171.57 12.64C171.99 12.64 172.93 12.68 173.25 12.68C173.42 12.68 173.45 12.61 173.45 12.40C173.45 12.24 173.42 12.18 173.25 12.18L172.26 12.18C172.23 12.18 172.23 11.76 172.23 11.31C172.23 9.56 172.31 5.96 172.31 5.92C172.33 5.18 172.33 3.75 172.42 3.75L174.03 3.75C174.75 3.75 175.57 3.78 175.57 3.85C175.57 3.99 175.53 4.90 175.53 4.97C175.53 5.12 175.60 5.17 175.78 5.17C175.98 5.17 176.05 5.17 176.05 5.03C176.05 3.93 176.11 3.40 176.11 3.14C176.11 2.94 176.02 2.94 175.83 2.94C175.67 2.94 175.62 2.98 175.60 3.16C175.60 3.23 174.96 3.28 174.12 3.28L169.12 3.28C168.46 3.28 167.65 3.28 167.65 3.21L167.65 3.07C167.65 2.94 167.52 2.94 167.43 2.94C167.20 2.94 167.17 3.00 167.16 3.19C167.10 3.89 166.94 4.97 166.94 5.01ZM184.07 5.77C184.07 9.07 189.06 8.20 189.06 10.65C189.06 11.59 188.22 12.31 187.24 12.31C186.41 12.31 184.81 11.83 184.79 11.47L184.70 10.15C184.69 9.97 184.62 9.91 184.44 9.91L184.37 9.91C184.16 9.91 184.16 10.00 184.16 10.12C184.16 10.32 184.27 11.66 184.30 12.17C184.31 12.38 185.57 12.85 187.11 12.85C188.68 12.85 190.29 11.87 190.29 10.11C190.29 6.79 185.32 7.87 185.32 5.32C185.32 4.31 186.10 3.56 187.14 3.56C188.16 3.56 189.25 4.58 189.25 4.89C189.25 5.01 189.21 5.73 189.21 5.78C189.21 5.92 189.25 5.99 189.52 5.99C189.76 5.99 189.77 5.94 189.77 5.75C189.77 5.04 189.85 3.68 189.85 3.53C189.85 3.30 189.81 3.29 189.55 3.29C189.32 3.29 189.31 3.32 189.29 3.53C189.29 3.61 189.28 3.78 189.24 3.78C189.18 3.78 189.10 3.74 189.03 3.68C188.23 3.14 187.61 3.08 187.11 3.08C185.58 3.08 184.07 4.17 184.07 5.77ZM207.91 12.39C207.91 12.63 207.91 12.68 208.11 12.68C208.28 12.68 208.60 12.64 209.17 12.64C209.79 12.64 210.34 12.68 210.49 12.68C210.66 12.68 210.66 12.61 210.66 12.40C210.66 12.24 210.66 12.18 210.49 12.18L209.41 12.18C209.41 12.18 209.40 12.18 209.40 12.17C209.41 11.87 210.18 9.90 210.53 9.02C210.60 8.83 210.62 8.79 210.83 8.79L213.65 8.79C213.79 8.79 213.79 8.81 213.86 9.03C214.13 9.77 214.84 11.89 214.84 12.17C214.84 12.18 214.83 12.18 214.83 12.18L214.06 12.18C213.84 12.18 213.82 12.19 213.82 12.39C213.82 12.63 213.84 12.68 214.00 12.68C214.33 12.68 215.19 12.64 215.61 12.64C216.03 12.64 216.71 12.68 216.92 12.68C217.06 12.68 217.07 12.61 217.07 12.40C217.07 12.24 217.06 12.18 216.92 12.18L216.43 12.18C216.33 12.18 215.31 9.34 214.75 7.78L213.07 3.07C213.05 3.00 212.98 2.94 212.90 2.94C212.77 2.94 212.67 3.16 212.59 3.35C212.44 3.71 212.20 3.84 212.09 4.13L210.60 7.57C210.42 8.01 208.71 12.18 208.59 12.18L208.17 12.18C207.94 12.18 207.91 12.19 207.91 12.39ZM210.81 8.33C210.81 8.30 210.84 8.23 210.88 8.13L212.25 4.77C212.30 4.66 212.32 4.61 212.35 4.61C212.37 4.61 212.38 4.63 212.42 4.77L213.58 8.18C213.61 8.25 213.63 8.29 213.63 8.32C213.63 8.36 213.60 8.37 213.50 8.37L210.99 8.37C210.81 8.37 210.81 8.34 210.81 8.33ZM224.83 12.39C224.83 12.63 224.84 12.68 225.04 12.68C225.22 12.68 225.60 12.64 226.21 12.64C226.84 12.64 227.40 12.68 227.72 12.68C227.89 12.68 227.89 12.61 227.89 12.40C227.89 12.24 227.89 12.18 227.72 12.18L226.52 12.18C226.48 12.18 226.46 11.54 226.46 10.79C226.46 9.46 226.48 7.48 226.48 5.99C226.48 5.25 226.48 4.84 226.49 4.28C226.49 4.02 226.56 4.14 226.69 4.28L233.58 12.66C233.66 12.75 233.74 12.89 233.86 12.89C233.97 12.89 234.04 12.77 234.04 12.54C234.04 12.39 234.21 6.65 234.22 4.48C234.22 4.06 234.25 3.70 234.28 3.70L234.91 3.70C235.13 3.70 235.19 3.68 235.19 3.49C235.19 3.25 235.19 3.19 234.99 3.19C234.79 3.19 234.36 3.23 233.80 3.23C233.18 3.23 232.39 3.19 232.29 3.19C232.12 3.19 232.12 3.26 232.12 3.47C232.12 3.64 232.12 3.70 232.29 3.70L233.59 3.70C233.60 3.70 233.60 4.33 233.60 4.44C233.60 5.85 233.63 8.33 233.63 9.70L233.63 10.29C233.63 10.57 233.62 10.65 233.39 10.37L227.71 3.39C227.60 3.25 227.57 3.19 227.40 3.19C227.32 3.19 226.94 3.23 226.63 3.23C226.34 3.23 225.26 3.19 225.06 3.19C224.90 3.19 224.87 3.26 224.87 3.47C224.87 3.64 224.90 3.70 225.06 3.70L225.97 3.70C225.97 4.17 225.93 8.53 225.86 10.79C225.83 11.69 225.85 12.18 225.74 12.18L225.09 12.18C224.87 12.18 224.83 12.19 224.83 12.39ZM243.15 12.46C243.15 12.63 243.17 12.70 243.35 12.70C243.50 12.70 244.73 12.64 245.13 12.64C245.98 12.64 246.86 12.70 247.72 12.70C250.33 12.70 252.73 11.07 252.73 7.91C252.73 4.89 250.39 3.07 247.35 3.07C246.79 3.07 245.53 3.23 244.50 3.23C244.02 3.23 243.56 3.22 243.50 3.22C243.32 3.22 243.31 3.32 243.31 3.49C243.31 3.68 243.38 3.70 243.50 3.70L244.47 3.67C244.50 3.67 244.50 4.20 244.50 4.72C244.50 5.91 244.41 12.21 244.33 12.21L243.43 12.21C243.25 12.21 243.15 12.22 243.15 12.46ZM245.73 11.40C245.73 9.46 245.73 7.52 245.74 5.60C245.74 5.03 245.78 3.61 245.83 3.60C246.12 3.53 246.71 3.51 247.06 3.51C249.62 3.51 251.23 5.75 251.23 7.73C251.23 8.95 251.19 12.25 246.51 12.25C246.25 12.25 245.84 12.25 245.74 12.21C245.73 12.19 245.73 11.79 245.73 11.40ZM270.84 5.77C270.84 9.07 275.83 8.20 275.83 10.65C275.83 11.59 274.99 12.31 274.01 12.31C273.18 12.31 271.59 11.83 271.56 11.47L271.47 10.15C271.46 9.97 271.39 9.91 271.21 9.91L271.14 9.91C270.93 9.91 270.93 10.00 270.93 10.12C270.93 10.32 271.04 11.66 271.07 12.17C271.08 12.38 272.34 12.85 273.88 12.85C275.45 12.85 277.06 11.87 277.06 10.11C277.06 6.79 272.09 7.87 272.09 5.32C272.09 4.31 272.87 3.56 273.91 3.56C274.93 3.56 276.02 4.58 276.02 4.89C276.02 5.01 275.98 5.73 275.98 5.78C275.98 5.92 276.02 5.99 276.29 5.99C276.53 5.99 276.54 5.94 276.54 5.75C276.54 5.04 276.63 3.68 276.63 3.53C276.63 3.30 276.58 3.29 276.32 3.29C276.09 3.29 276.08 3.32 276.07 3.53C276.07 3.61 276.05 3.78 276.01 3.78C275.95 3.78 275.87 3.74 275.80 3.68C275.00 3.14 274.39 3.08 273.88 3.08C272.36 3.08 270.84 4.17 270.84 5.77ZM285.10 7.91C285.10 11.31 287.46 12.87 290.05 12.87C291.83 12.87 293.61 11.90 293.65 11.59C293.82 10.29 293.87 9.70 293.87 9.66C293.87 9.56 293.83 9.52 293.66 9.51C293.61 9.51 293.55 9.49 293.51 9.49C293.40 9.49 293.34 9.53 293.31 9.70L293.13 11.33C293.12 11.45 292.01 12.24 290.44 12.24C288.32 12.24 286.61 10.29 286.61 7.94C286.61 5.42 288.04 3.54 290.04 3.54C291.89 3.54 293.23 5.01 293.23 5.17C293.23 5.29 293.17 6.40 293.17 6.45C293.17 6.59 293.22 6.64 293.48 6.64C293.68 6.64 293.75 6.62 293.75 6.44C293.75 5.73 293.80 3.92 293.80 3.67C293.80 3.47 293.69 3.44 293.48 3.44C293.26 3.44 293.23 3.50 293.23 3.67L293.23 4.05C293.23 4.16 293.19 4.16 293.06 4.06C292.78 3.86 291.80 3.04 290.14 3.04C287.29 3.04 285.10 4.96 285.10 7.91ZM302.26 3.51C302.26 3.72 302.33 3.79 302.53 3.79L303.34 3.77C303.44 3.77 303.48 6.61 303.48 8.55L303.48 10.42C303.48 11.30 303.46 12.18 303.42 12.18L302.82 12.18C302.60 12.18 302.53 12.19 302.53 12.39C302.53 12.63 302.57 12.68 302.76 12.68C302.89 12.68 303.72 12.64 304.14 12.64C304.56 12.64 305.33 12.68 305.65 12.68C305.82 12.68 305.84 12.61 305.84 12.40C305.84 12.24 305.82 12.18 305.65 12.18L304.84 12.18C304.77 12.18 304.68 9.18 304.68 8.37C304.68 8.30 304.68 8.26 304.79 8.26C305.19 8.26 305.79 8.27 306.08 8.27C308.32 8.32 308.46 10.00 308.46 11.68L308.46 12.49C308.46 12.61 308.52 12.64 308.62 12.64C308.62 12.64 310.06 12.68 310.53 12.68C310.70 12.68 310.76 12.64 310.76 12.53C310.76 12.24 310.70 12.18 310.55 12.18L309.90 12.18C309.81 12.18 309.78 12.14 309.75 11.31C309.67 8.99 308.29 8.34 307.38 8.05C307.24 8.01 307.27 8.01 307.38 7.95C307.97 7.69 309.29 6.94 309.29 5.63C309.29 3.63 307.59 3.21 306.19 3.21C305.87 3.21 304.58 3.29 304.16 3.29C303.74 3.29 302.76 3.26 302.54 3.26C302.36 3.26 302.26 3.28 302.26 3.51ZM304.68 7.80L304.68 4.40C304.68 4.05 304.71 3.68 304.75 3.68C304.96 3.65 305.24 3.65 305.47 3.65C306.77 3.65 308.01 4.47 308.01 5.82C308.01 6.99 307.47 7.57 306.81 7.88C306.77 7.90 306.73 7.90 306.66 7.90C306.18 7.88 305.47 7.88 304.86 7.87C304.70 7.87 304.68 7.85 304.68 7.80ZM318.09 12.39C318.09 12.63 318.14 12.68 318.33 12.68C318.65 12.68 319.41 12.64 320.12 12.64C320.78 12.64 321.58 12.68 321.80 12.68C321.97 12.68 322 12.61 322 12.40C322 12.24 321.97 12.18 321.80 12.18L320.84 12.18C320.74 12.18 320.71 9.55 320.71 7.76L320.71 5.87C320.71 5.14 320.74 3.70 320.84 3.70L321.75 3.70C321.97 3.70 322 3.68 322 3.49C322 3.25 321.97 3.19 321.80 3.19C321.48 3.19 320.81 3.23 320.15 3.23C319.34 3.23 318.63 3.19 318.40 3.19C318.22 3.19 318.15 3.21 318.15 3.44C318.15 3.68 318.23 3.70 318.40 3.70L319.33 3.70C319.37 3.70 319.44 4.79 319.44 5.71L319.44 7.08C319.44 8.92 319.42 12.18 319.31 12.18L318.39 12.18C318.16 12.18 318.09 12.19 318.09 12.39ZM329.90 3.51C329.90 3.75 329.98 3.79 330.15 3.79L331.00 3.77C331.06 3.77 331.11 5.52 331.11 7.11L331.11 11.63C331.11 11.93 331.10 12.18 331.07 12.18L330.34 12.18C330.12 12.18 330.05 12.19 330.05 12.39C330.05 12.63 330.08 12.68 330.27 12.68C330.40 12.68 331.35 12.64 331.77 12.64C331.95 12.64 332.47 12.67 333.12 12.67C334.67 12.67 337.08 12.43 337.08 10.23C337.08 8.27 335.26 7.94 334.57 7.84C334.49 7.83 334.47 7.83 334.47 7.81C334.47 7.80 334.52 7.78 334.59 7.76C335.23 7.52 336.67 6.90 336.67 5.54C336.67 3.81 335.20 3.25 333.52 3.25C332.95 3.25 332.35 3.29 331.80 3.29C331.38 3.29 330.37 3.26 330.15 3.26C329.97 3.26 329.90 3.28 329.90 3.51ZM332.35 8.19C332.35 8.12 332.35 8.08 332.46 8.08L332.93 8.08C333.55 8.08 334.19 8.09 334.57 8.22C335.44 8.51 335.76 9.16 335.76 10.14C335.76 11.17 335.30 12.18 333.28 12.18L332.44 12.18C332.36 12.18 332.35 9.02 332.35 8.19ZM332.35 7.59L332.35 6.92C332.35 5.87 332.36 3.71 332.40 3.68C332.46 3.65 332.77 3.63 332.98 3.63C334.39 3.63 335.41 4.41 335.41 5.77C335.41 6.92 334.68 7.46 334.05 7.66C333.97 7.69 333.87 7.70 333.79 7.70C333.70 7.70 333.56 7.69 333.33 7.69L332.53 7.69C332.35 7.69 332.35 7.67 332.35 7.59ZM345.18 3.51C345.18 3.75 345.27 3.79 345.44 3.79L346.29 3.77C346.35 3.77 346.40 5.52 346.40 7.11L346.40 11.63C346.40 11.93 346.39 12.18 346.36 12.18L345.63 12.18C345.41 12.18 345.34 12.19 345.34 12.39C345.34 12.63 345.37 12.68 345.56 12.68C345.69 12.68 346.64 12.64 347.06 12.64C347.24 12.64 347.76 12.67 348.40 12.67C349.96 12.67 352.37 12.43 352.37 10.23C352.37 8.27 350.55 7.94 349.86 7.84C349.78 7.83 349.76 7.83 349.76 7.81C349.76 7.80 349.80 7.78 349.87 7.76C350.52 7.52 351.96 6.90 351.96 5.54C351.96 3.81 350.49 3.25 348.81 3.25C348.24 3.25 347.63 3.29 347.09 3.29C346.67 3.29 345.66 3.26 345.44 3.26C345.25 3.26 345.18 3.28 345.18 3.51ZM347.63 8.19C347.63 8.12 347.63 8.08 347.75 8.08L348.22 8.08C348.84 8.08 349.48 8.09 349.86 8.22C350.73 8.51 351.05 9.16 351.05 10.14C351.05 11.17 350.59 12.18 348.57 12.18L347.73 12.18C347.65 12.18 347.63 9.02 347.63 8.19ZM347.63 7.59L347.63 6.92C347.63 5.87 347.65 3.71 347.69 3.68C347.75 3.65 348.05 3.63 348.26 3.63C349.68 3.63 350.70 4.41 350.70 5.77C350.70 6.92 349.97 7.46 349.34 7.66C349.26 7.69 349.16 7.70 349.08 7.70C348.99 7.70 348.85 7.69 348.61 7.69L347.82 7.69C347.63 7.69 347.63 7.67 347.63 7.59ZM360.47 12.39C360.47 12.63 360.50 12.68 360.70 12.68C361.02 12.68 361.98 12.64 362.40 12.64C362.82 12.64 367.18 12.68 367.50 12.68C367.77 12.68 367.84 12.66 367.85 12.49C367.91 12.08 368.14 10.72 368.14 10.60C368.14 10.47 367.99 10.44 367.82 10.43C367.72 10.42 367.64 10.46 367.63 10.56L367.46 11.76C367.42 12.05 367.40 12.03 367.18 12.04C367.02 12.05 364.52 12.12 363.09 12.12C363.05 12.12 363.01 11.38 363.01 10.54L363.01 6.66C363.01 5.40 363.02 3.70 363.12 3.70L364.10 3.70C364.34 3.70 364.36 3.63 364.36 3.44C364.36 3.23 364.35 3.19 364.11 3.19C363.79 3.19 362.85 3.23 362.43 3.23C362.01 3.23 361.07 3.19 360.85 3.19C360.63 3.19 360.57 3.22 360.57 3.44C360.57 3.65 360.61 3.70 360.81 3.70L361.63 3.70C361.68 3.70 361.70 4.23 361.70 4.90L361.70 8.13C361.70 10.07 361.68 12.18 361.59 12.18L360.75 12.18C360.53 12.18 360.47 12.21 360.47 12.39ZM375.62 12.39C375.62 12.63 375.66 12.68 375.86 12.68C376.18 12.68 376.94 12.64 377.65 12.64C378.31 12.64 379.11 12.68 379.33 12.68C379.50 12.68 379.53 12.61 379.53 12.40C379.53 12.24 379.50 12.18 379.33 12.18L378.36 12.18C378.27 12.18 378.24 9.55 378.24 7.76L378.24 5.87C378.24 5.14 378.27 3.70 378.36 3.70L379.27 3.70C379.50 3.70 379.53 3.68 379.53 3.49C379.53 3.25 379.50 3.19 379.33 3.19C379.01 3.19 378.34 3.23 377.68 3.23C376.87 3.23 376.15 3.19 375.93 3.19C375.75 3.19 375.68 3.21 375.68 3.44C375.68 3.68 375.76 3.70 375.93 3.70L376.85 3.70C376.89 3.70 376.96 4.79 376.96 5.71L376.96 7.08C376.96 8.92 376.95 12.18 376.84 12.18L375.91 12.18C375.69 12.18 375.62 12.19 375.62 12.39ZM387.42 12.39C387.42 12.63 387.44 12.68 387.63 12.68C387.81 12.68 388.19 12.64 388.81 12.64C389.44 12.64 390.00 12.68 390.32 12.68C390.49 12.68 390.49 12.61 390.49 12.40C390.49 12.24 390.49 12.18 390.32 12.18L389.12 12.18C389.07 12.18 389.06 11.54 389.06 10.79C389.06 9.46 389.07 7.48 389.07 5.99C389.07 5.25 389.07 4.84 389.09 4.28C389.09 4.02 389.16 4.14 389.28 4.28L396.17 12.66C396.26 12.75 396.34 12.89 396.45 12.89C396.56 12.89 396.63 12.77 396.63 12.54C396.63 12.39 396.80 6.65 396.82 4.48C396.82 4.06 396.84 3.70 396.87 3.70L397.50 3.70C397.73 3.70 397.78 3.68 397.78 3.49C397.78 3.25 397.78 3.19 397.59 3.19C397.39 3.19 396.96 3.23 396.40 3.23C395.78 3.23 394.98 3.19 394.88 3.19C394.72 3.19 394.72 3.26 394.72 3.47C394.72 3.64 394.72 3.70 394.88 3.70L396.19 3.70C396.20 3.70 396.20 4.33 396.20 4.44C396.20 5.85 396.23 8.33 396.23 9.70L396.23 10.29C396.23 10.57 396.21 10.65 395.99 10.37L390.31 3.39C390.19 3.25 390.17 3.19 390.00 3.19C389.91 3.19 389.54 3.23 389.23 3.23C388.93 3.23 387.86 3.19 387.66 3.19C387.49 3.19 387.46 3.26 387.46 3.47C387.46 3.64 387.49 3.70 387.66 3.70L388.57 3.70C388.57 4.17 388.53 8.53 388.46 10.79C388.43 11.69 388.44 12.18 388.33 12.18L387.69 12.18C387.46 12.18 387.42 12.19 387.42 12.39ZM405.89 7.91C405.89 11.40 408.25 12.89 410.84 12.89C412.73 12.89 414.74 11.89 414.74 11.58C414.74 11.12 414.75 10.68 414.75 10.33C414.75 9.81 414.76 9.56 414.89 9.56L415.32 9.56C415.46 9.56 415.48 9.39 415.48 9.30C415.48 9.18 415.46 9.06 415.32 9.06C415.10 9.06 414.74 9.10 414.06 9.10C413.62 9.10 412.87 9.07 412.19 9.06C412.05 9.06 412.05 9.24 412.05 9.35C412.05 9.45 412.08 9.56 412.20 9.56L413.42 9.56C413.46 9.56 413.52 9.87 413.52 10.33C413.52 10.82 413.50 11.41 413.48 11.65C413.46 11.76 412.82 12.39 411.24 12.39C409.00 12.39 407.40 10.29 407.40 7.94C407.40 5.42 408.95 3.54 410.96 3.54C412.85 3.54 414.02 4.87 414.02 5.03C414.02 5.15 413.97 6.12 413.97 6.17C413.97 6.31 414.01 6.36 414.27 6.36C414.47 6.36 414.54 6.33 414.54 6.15C414.54 5.43 414.58 3.75 414.58 3.56C414.58 3.36 414.48 3.33 414.27 3.33C414.05 3.33 414.02 3.39 414.02 3.56L414.02 3.91C414.02 3.99 413.98 4.02 413.85 3.92C413.57 3.72 412.58 3.08 411.01 3.08C408.17 3.08 405.89 4.79 405.89 7.91ZM423.72 5.77C423.72 9.07 428.71 8.20 428.71 10.65C428.71 11.59 427.87 12.31 426.89 12.31C426.06 12.31 424.47 11.83 424.44 11.47L424.35 10.15C424.34 9.97 424.27 9.91 424.09 9.91L424.02 9.91C423.81 9.91 423.81 10.00 423.81 10.12C423.81 10.32 423.92 11.66 423.95 12.17C423.96 12.38 425.22 12.85 426.76 12.85C428.33 12.85 429.94 11.87 429.94 10.11C429.94 6.79 424.97 7.87 424.97 5.32C424.97 4.31 425.75 3.56 426.79 3.56C427.81 3.56 428.90 4.58 428.90 4.89C428.90 5.01 428.86 5.73 428.86 5.78C428.86 5.92 428.90 5.99 429.17 5.99C429.41 5.99 429.42 5.94 429.42 5.75C429.42 5.04 429.51 3.68 429.51 3.53C429.51 3.30 429.46 3.29 429.20 3.29C428.97 3.29 428.96 3.32 428.95 3.53C428.95 3.61 428.93 3.78 428.89 3.78C428.83 3.78 428.75 3.74 428.68 3.68C427.88 3.14 427.27 3.08 426.76 3.08C425.24 3.08 423.72 4.17 423.72 5.77Z"></path></g></svg>